# xmcd
#
# Track frame offsets:
#	150
#	13370
#	25182
#	36747
#	50657
#	66717
#	81402
#	96677
#	108530
#	124532
#	137880
#	150105
#	163180
#	177295
#	191145
#	207712
#	224860
#	238020
#	256397
#	275967
#
# Disc length: 3863 seconds
#
# Revision: 4
# Processed by: cddbd v1.5.1PL0 Copyright (c) Steve Scherf et al.
# Submitted via: dBpowerAMP V4.0
#
DISCID=4f0f1514
DTITLE=Sacha Distel - Les Plus Grand Succes De Sacha Distel
DYEAR=1980
DGENRE=Folk-Rock
TTITLE0=Scoubidou "Pommes Et Poires"
TTITLE1=Oh Quelle Nuit (Lonesome Me)
TTITLE2=Oui, Oui, Oui, Oui
TTITLE3=Ma Premiere Guitare
TTITLE4=Mon Beau Chapeau
TTITLE5=Chanson bleue (Song Sung Blue)
TTITLE6=Scandale Dans La Famille (Shame And Scandal In The Family)
TTITLE7=Ces Mots Stupides (Somethin' Stupid)
TTITLE8=Monsieur Cannibale
TTITLE9=L'incendie A Rio
TTITLE10=Accroche Un Ruban (Tie A Yellow Ribbon Round The Ole Oak Tree)
TTITLE11=La Belle Vie
TTITLE12=Toute La Pluie Tombe Sur Moi (Raindrops Keep Falling On My Head)
TTITLE13=Le Soleil De Ma Vie (You Are The Sunshine Of My Life)
TTITLE14=Ma Femme (Oh ! No, No)
TTITLE15=Vite, Cherie, Vite (Beach Baby)
TTITLE16=Toutes Les Memes (Love Is All)
TTITLE17=Le Pere De Sylvia (Sylvia's Mother)
TTITLE18=Je T'Appelle Pour Te Dire Que Je T'aime (I Just Call To Say I Love You)
TTITLE19=Le Bateau Blanc
EXTD=
EXTT0=
EXTT1=
EXTT2=
EXTT3=
EXTT4=
EXTT5=
EXTT6=
EXTT7=
EXTT8=
EXTT9=
EXTT10=
EXTT11=
EXTT12=
EXTT13=
EXTT14=
EXTT15=
EXTT16=
EXTT17=
EXTT18=
EXTT19=
PLAYORDER=
